<?xml version="1.0" encoding="UTF-8" standalone="no"?>
<!-- Created with Inkscape (http://www.inkscape.org/) -->

<svg
   xmlns:dc="http://purl.org/dc/elements/1.1/"
   xmlns:cc="http://creativecommons.org/ns#"
   xmlns:rdf="http://www.w3.org/1999/02/22-rdf-syntax-ns#"
   xmlns:svg="http://www.w3.org/2000/svg"
   xmlns="http://www.w3.org/2000/svg"
   xmlns:sodipodi="http://sodipodi.sourceforge.net/DTD/sodipodi-0.dtd"
   xmlns:inkscape="http://www.inkscape.org/namespaces/inkscape"
   width="400"
   height="400"
   id="svg2"
   sodipodi:version="0.32"
   inkscape:version="0.91 r13725"
   version="1.0"
   sodipodi:docname="mumble.svg"
   inkscape:output_extension="org.inkscape.output.svg.inkscape"
   style="display:inline">
  <title
     id="title3169">Mumble logo</title>
  <defs
     id="defs4">
    <linearGradient
       id="linearGradient4117">
      <stop
         style="stop-color:#000000;stop-opacity:0;"
         offset="0"
         id="stop4119" />
      <stop
         id="stop4125"
         offset="0.81720757"
         style="stop-color:#000000;stop-opacity:0.01960784;" />
      <stop
         style="stop-color:#000000;stop-opacity:0.14509804;"
         offset="0.89931339"
         id="stop4127" />
      <stop
         id="stop4129"
         offset="0.91198522"
         style="stop-color:#000000;stop-opacity:0.20784314;" />
      <stop
         style="stop-color:#000000;stop-opacity:0.25098039;"
         offset="0.95598048"
         id="stop4131" />
      <stop
         style="stop-color:#000000;stop-opacity:0.33333334;"
         offset="1"
         id="stop4121" />
    </linearGradient>
    <linearGradient
       id="linearGradient1125-6">
      <stop
         style="stop-color:#969696;stop-opacity:1;"
         offset="0"
         id="stop1127-9" />
      <stop
         style="stop-color:#e6e6e6;stop-opacity:0;"
         offset="1"
         id="stop1129-8" />
    </linearGradient>
    <linearGradient
       id="linearGradient1117-8-2">
      <stop
         style="stop-color:#afafaf;stop-opacity:1;"
         offset="0"
         id="stop1119-1-6" />
      <stop
         style="stop-color:#e6e6e6;stop-opacity:0;"
         offset="1"
         id="stop1121-2-2" />
    </linearGradient>
    <linearGradient
       id="linearGradient1284-7">
      <stop
         style="stop-color:#bebebe;stop-opacity:1;"
         offset="0"
         id="stop1286-8" />
      <stop
         style="stop-color:#b3b3b3;stop-opacity:0;"
         offset="1"
         id="stop1288-0" />
    </linearGradient>
    <linearGradient
       id="linearGradient1117-8-2-0">
      <stop
         style="stop-color:#afafaf;stop-opacity:1;"
         offset="0"
         id="stop1119-1-6-8" />
      <stop
         style="stop-color:#e6e6e6;stop-opacity:0;"
         offset="1"
         id="stop1121-2-2-9" />
    </linearGradient>
    <linearGradient
       id="linearGradient1125-6-2">
      <stop
         style="stop-color:#969696;stop-opacity:1;"
         offset="0"
         id="stop1127-9-0" />
      <stop
         style="stop-color:#e6e6e6;stop-opacity:0;"
         offset="1"
         id="stop1129-8-5" />
    </linearGradient>
  </defs>
  <sodipodi:namedview
     id="base"
     pagecolor="#ffffff"
     bordercolor="#666666"
     borderopacity="1.0"
     inkscape:pageopacity="0.0"
     inkscape:pageshadow="2"
     inkscape:zoom="1.2780955"
     inkscape:cx="151.87021"
     inkscape:cy="221.68303"
     inkscape:document-units="px"
     inkscape:current-layer="layer4"
     showgrid="false"
     inkscape:snap-page="false"
     inkscape:snap-global="false"
     inkscape:window-width="1878"
     inkscape:window-height="632"
     inkscape:window-x="-3"
     inkscape:window-y="0"
     inkscape:window-maximized="0"
     inkscape:snap-object-midpoints="true"
     inkscape:snap-nodes="true"
     inkscape:snap-grids="false"
     inkscape:snap-to-guides="false"
     inkscape:snap-center="true"
     inkscape:snap-bbox="true"
     inkscape:bbox-nodes="true"
     inkscape:snap-bbox-edge-midpoints="true"
     inkscape:snap-bbox-midpoints="true"
     inkscape:bbox-paths="true" />
  <metadata
     id="metadata7">
    <rdf:RDF>
      <cc:Work
         rdf:about="">
        <dc:format>image/svg+xml</dc:format>
        <dc:type
           rdf:resource="http://purl.org/dc/dcmitype/StillImage" />
        <dc:title>Mumble logo</dc:title>
        <dc:date>2009.08.17</dc:date>
        <dc:creator>
          <cc:Agent>
            <dc:title>Martin Skilnand</dc:title>
          </cc:Agent>
        </dc:creator>
        <dc:rights>
          <cc:Agent>
            <dc:title>Martin Skilnand</dc:title>
          </cc:Agent>
        </dc:rights>
        <dc:publisher>
          <cc:Agent>
            <dc:title>Mumble team</dc:title>
          </cc:Agent>
        </dc:publisher>
        <dc:identifier>mumble.svg</dc:identifier>
        <dc:source>https://github.com/mumble-voip/mumble/</dc:source>
        <dc:description>Logo for voice chat program mumble</dc:description>
        <cc:license
           rdf:resource="BSD" />
      </cc:Work>
    </rdf:RDF>
  </metadata>
  <g
     inkscape:label="Circle"
     inkscape:groupmode="layer"
     id="layer1"
     transform="translate(0,-652.36218)"
     style="display:inline"
     sodipodi:insensitive="true">
    <ellipse
       style="display:inline;fill:#ffffff;stroke:#000000;stroke-width:4.57597017;stroke-linejoin:round;stroke-miterlimit:4;stroke-dasharray:none;stroke-opacity:1;fill-opacity:1"
       id="path26"
       transform="matrix(1.0811038,0,0,1.1043488,-22.437604,617.97608)"
       cx="206.64375"
       cy="214.43469"
       rx="178.98123"
       ry="174.04742" />
  </g>
  <g
     inkscape:groupmode="layer"
     id="layer4"
     inkscape:label="Headstrap"
     style="display:inline"
     sodipodi:insensitive="true">
    <path
       style="fill:#000000;fill-opacity:1;fill-rule:evenodd;stroke:#ffffff"
       d="m 156.21577,31.610002 c -24.65159,-0.615413 -49.62289,15.704618 -55.8525,40.126444 -1.45111,5.920437 -2.042947,11.533344 -2.147496,17.25104 l 0,63.622514 24.999996,0 c 0.0881,-22.3821 -0.12668,-44.64411 0.1701,-67.071988 0.76858,-14.243077 11.77335,-29.258147 27.0486,-29.08431 0.11203,22.668722 -0.22918,11.065684 0.18004,33.725274 1.30284,18.426054 18.76217,33.676414 37.24339,32.114014 11.54558,-0.2802 15.55858,0.67313 27.02849,-0.72475 17.46577,-3.27442 29.55308,-21.06252 27.92904,-38.449304 l 0,-26.571484 c 15.88808,-1.160259 27.93757,14.263321 28.64235,29.08431 0.29501,22.427208 0.0825,44.692338 0.1701,67.071988 l 25,0 0,-67.499998 c -0.81797,-7.276075 -1.9718,-16.180186 -5.9149,-23.198476 -10.22889,-20.751216 -34.15317,-31.947919 -56.71743,-30.261229 -6.591,-0.83713 -13.68143,3.619737 -15.48689,9.866559 0.10876,26.738504 0.18577,19.200498 -0.015,45.93414 -0.75343,11.19988 -7.98089,19.763984 -18.99571,18.342044 -7.79212,0.33854 -12.78412,0.0136 -18.09875,-6.681714 -7.16232,-7.57045 -4.76318,-18.40537 -5.18362,-27.81167 0.0193,-21.718966 -0.0713,-9.132663 0.1249,-30.814654 -3.25934,-6.591257 -10.50309,-9.993605 -17.67905,-8.911927 l -1.18772,-0.01641 -1.25823,-0.04042 2.5e-4,0 z"
       id="rect1019"
       transform="matrix(1.05,0,0,1.05,-5.3555131,0.50955272)"
       inkscape:connector-curvature="0"
       sodipodi:nodetypes="ccccccccccccccccccccccccccccc" />
  </g>
  <g
     inkscape:groupmode="layer"
     id="layer2"
     inkscape:label="Headphones"
     style="display:inline"
     sodipodi:insensitive="true">
    <path
       style="fill:#000000;fill-opacity:1;fill-rule:evenodd;stroke:#ffffff"
       d="m 290.42422,313.15625 c -0.69916,-0.007 -3.31052,-0.57507 -3.94043,-0.16697 0,0 -1.03559,3.01675 -4.60424,5.67254 -3.13272,2.33137 -6.10765,4.56617 -9.29463,6.66254 -2.86157,1.88231 -5.93275,3.91773 -8.80984,5.30245 -2.26396,1.08961 -4.11397,1.24819 -4.11397,1.24819 l -32.21955,0 c -2.01273,0 -3.66178,1.58716 -3.66178,3.5625 l 0,0.875 c 0,1.97534 1.64905,3.59375 3.66178,3.59375 l 33.87945,0 c 0.77968,0 3.59712,-0.82022 5.27249,-1.55528 4.17684,-1.83257 6.89898,-4.16602 11.7099,-7.02744 5.11436,-3.27118 14.57263,-10.88603 14.57263,-10.88603 1.67973,-1.08826 2.12779,-3.28897 1.01893,-4.9375 l -0.47763,-0.75 c -0.69304,-1.03033 -1.82785,-1.58241 -2.99311,-1.59375 z"
       id="rect134"
       sodipodi:nodetypes="ccsasccccccaccccc"
       transform="matrix(1.05,0,0,1.05,-5.3555131,0.50955272)"
       inkscape:connector-curvature="0" />
    <path
       style="opacity:0.96660007;fill:#000000;fill-opacity:1;fill-rule:evenodd;stroke:#ffffff"
       d="m 288.25,148.4375 0,169.375 C 321.70534,314.14251 348,277.6333 348,233.125 c 0,-44.5083 -26.29466,-81.01751 -59.75,-84.6875 z"
       id="path833"
       transform="matrix(1.05,0,0,1.05,-5.3555131,0.50955272)"
       inkscape:connector-curvature="0" />
    <path
       style="display:inline;opacity:0.96660007;fill:#000000;fill-opacity:1;fill-rule:evenodd;stroke:#ffffff"
       d="m 106.22355,149.3374 0,169.375 c -33.455343,-3.66999 -59.750003,-40.1792 -59.750003,-84.6875 0,-44.5083 26.29466,-81.01751 59.750003,-84.6875 z"
       id="path833-2"
       inkscape:connector-curvature="0"
       transform="matrix(1.05,0,0,1.05,-5.3555131,0.50955272)" />
    <ellipse
       style="opacity:0.96660007;fill:#000000;fill-opacity:1;fill-rule:evenodd;stroke:#ffffff"
       id="path906"
       transform="matrix(1.304789,0,0,1.21464,-20.460693,-43.799678)"
       cx="172.61411"
       cy="325.86444"
       rx="22.130014"
       ry="13.831259" />
    <rect
       style="display:inline;opacity:0.96660007;fill:#000000;fill-opacity:1;fill-rule:evenodd;stroke:#ffffff;stroke-width:1.66025639"
       id="rect908-1"
       width="31.609222"
       height="179.98912"
       x="263.98648"
       y="153.77074"
       rx="9.2193556"
       ry="3.7056589" />
    <rect
       style="display:inline;opacity:0.96660007;fill:#000000;fill-opacity:1;fill-rule:evenodd;stroke:#ffffff;stroke-width:1.47341883"
       id="rect908-1-6"
       width="31.609222"
       height="180.17601"
       x="107.53278"
       y="154.72731"
       rx="7.2535725"
       ry="3.709506" />
  </g>
</svg>
