<?xml version="1.0" encoding="UTF-8" standalone="no"?>
<svg xmlns="http://www.w3.org/2000/svg" width="300" height="300" viewBox="0 0 120 120">
<g transform="translate(-190,180) scale(0.016963,-0.016963)" fill="#CDC3CC">
	<g id="europe">
		<path d="M14635 12979 c-4 -6 -14 -8 -23 -4 -8 3 -26 -4 -40 -17 -14 -13 -22 -17 -18 -10 5 8 -2 12 -26 12 -43 0 -79 -10 -73 -20 6 -10 -43 -24 -74 -21 -17 2 -21 -1 -16 -11 6 -10 5 -11 -6 0 -24 22 -89 12 -89 -14 0 -15 -1 -15 -37 -19 -41 -4 -55 -14 -50 -35 3 -11 0 -23 -5 -27 -7 -4 -8 -1 -3 7 6 10 2 11 -20 6 -25 -6 -27 -5 -16 8 19 22 0 21 -53 -5 -33 -15 -43 -25 -39 -36 4 -11 2 -14 -5 -9 -14 8 -82 -19 -82 -33 0 -14 4 -14 45 3 19 8 35 13 35 11 0 -2 14 0 30 5 18 5 30 5 30 -1 0 -5 -7 -9 -15 -9 -8 0 -15 -9 -15 -19 0 -11 -20 -34 -50 -55 -27 -20 -50 -40 -50 -45 0 -5 -9 -11 -20 -14 -14 -3 -20 -14 -20 -31 0 -34 -33 -66 -67 -66 -23 0 -25 -2 -13 -11 12 -9 13 -11 1 -16 -7 -3 -31 -23 -52 -44 -35 -35 -41 -38 -60 -27 -17 11 -22 10 -32 -3 -7 -9 -18 -14 -26 -11 -10 3 -12 0 -8 -11 4 -11 -2 -17 -24 -22 -16 -4 -29 -11 -29 -16 0 -5 -11 -11 -25 -15 -14 -3 -25 -10 -25 -16 0 -5 -4 -7 -8 -4 -5 3 -22 -3 -39 -14 -30 -18 -31 -21 -32 -94 -1 -63 2 -74 14 -70 16 6 21 -11 7 -20 -12 -7 -13 -66 -1 -66 5 0 9 -9 9 -20 0 -12 15 -29 40 -45 52 -33 106 -33 151 0 19 13 53 34 77 46 23 12 42 29 43 38 0 13 2 14 6 1 3 -8 12 -19 19 -23 8 -4 14 -20 14 -35 0 -15 9 -38 20 -52 11 -14 20 -29 20 -33 0 -5 16 -25 35 -45 19 -20 30 -38 25 -40 -6 -2 -10 -10 -10 -18 0 -8 -3 -13 -7 -13 -16 3 -73 -14 -73 -21 0 -10 -59 -24 -67 -17 -2 3 0 14 6 24 10 17 10 17 11 0 0 -10 5 -15 10 -12 6 4 8 10 5 15 -3 5 -1 11 5 15 18 11 11 35 -10 35 -20 0 -28 24 -11 35 12 7 11 65 -1 65 -4 0 -8 -4 -8 -10 0 -5 -6 -10 -14 -10 -7 0 -19 -7 -26 -15 -7 -8 -25 -15 -41 -15 -54 0 -91 -107 -51 -148 14 -16 15 -29 2 -37 -5 -3 -7 -12 -3 -21 4 -11 9 -12 19 -3 11 9 14 8 14 -5 0 -9 -5 -16 -11 -16 -8 0 -8 -5 1 -15 22 -26 -5 -46 -51 -39 -26 5 -46 2 -61 -8 -14 -9 -36 -13 -54 -11 -47 7 -90 -19 -98 -60 -10 -53 -76 -113 -151 -138 -44 -14 -51 -20 -58 -52 -8 -32 -14 -38 -48 -47 -22 -6 -45 -20 -52 -30 -14 -23 -49 -26 -69 -7 -7 8 -26 17 -42 21 -26 6 -28 5 -21 -16 21 -68 19 -73 -22 -73 -21 0 -43 4 -50 8 -13 8 -89 -1 -113 -14 -19 -9 -21 -59 -3 -59 7 0 13 -4 13 -10 0 -5 6 -7 13 -4 23 9 67 -14 61 -31 -3 -8 -1 -15 6 -15 6 0 8 5 5 10 -11 18 25 10 47 -10 13 -11 16 -20 9 -20 -9 0 -8 -5 3 -16 9 -8 16 -20 16 -25 0 -5 7 -9 16 -9 8 0 12 -4 9 -10 -3 -5 -2 -10 3 -10 5 0 9 -6 9 -12 0 -7 2 -17 4 -23 4 -14 -10 -114 -22 -153 -12 -36 -40 -56 -69 -47 -17 5 -151 15 -277 19 -29 1 -55 5 -59 9 -14 14 -51 7 -69 -13 -10 -11 -26 -20 -35 -20 -28 0 -42 -24 -31 -53 5 -13 11 -55 12 -93 3 -73 -20 -157 -50 -181 -8 -7 -12 -13 -9 -13 4 0 3 -13 -2 -30 -5 -18 -5 -30 1 -30 5 0 9 -7 9 -15 0 -8 6 -14 13 -12 13 2 15 -49 3 -93 -7 -24 -5 -25 36 -24 24 0 53 4 66 8 36 12 62 -3 79 -45 17 -44 55 -62 76 -36 22 27 81 46 142 47 33 0 68 0 78 1 9 0 24 14 32 30 11 20 26 32 46 36 23 4 34 15 46 44 8 22 21 39 28 39 7 0 18 7 25 15 11 13 10 18 -2 28 -24 19 -27 42 -10 69 36 53 97 118 111 118 8 0 38 12 67 27 54 27 84 67 64 87 -5 5 -10 20 -10 32 0 49 106 67 167 28 33 -21 56 -17 92 15 19 17 46 33 62 36 16 4 34 15 39 25 5 10 16 20 24 23 21 8 106 -31 106 -49 0 -8 6 -23 13 -35 10 -17 9 -22 -6 -34 -13 -9 -15 -15 -6 -20 6 -4 15 -2 19 6 7 10 11 10 24 0 9 -8 16 -20 16 -27 0 -8 9 -14 20 -14 11 0 20 -3 20 -8 0 -15 100 -86 123 -87 13 0 35 -12 49 -27 14 -16 33 -28 42 -28 9 0 16 -7 16 -16 0 -9 13 -21 30 -27 22 -8 33 -22 45 -57 10 -28 12 -46 5 -48 -5 -2 -10 -12 -10 -21 0 -23 -92 -44 -164 -37 -59 5 -76 0 -76 -24 0 -17 90 -70 118 -70 6 0 15 -6 19 -13 4 -8 18 -16 31 -20 25 -6 46 21 36 47 -3 9 -3 28 0 42 5 20 11 24 27 19 25 -8 69 29 69 58 0 10 9 21 20 24 28 7 26 45 -5 63 -22 14 -23 18 -12 40 10 20 19 24 42 22 17 -2 32 -8 33 -13 2 -5 11 -17 20 -25 15 -15 17 -15 26 5 13 30 -17 60 -104 102 -59 28 -67 36 -59 51 5 10 6 18 2 19 -4 0 -27 1 -50 3 -34 2 -50 10 -78 39 -19 20 -35 44 -35 54 -1 25 -18 45 -62 71 -41 25 -56 55 -38 77 7 9 8 15 0 20 -20 12 -10 31 23 43 40 14 69 16 49 4 -9 -6 -10 -16 -3 -34 12 -33 31 -45 42 -27 6 11 9 8 9 -8 0 -12 5 -25 10 -28 6 -3 10 3 10 14 0 11 5 23 12 27 8 5 9 2 5 -10 -4 -10 -1 -24 9 -33 11 -12 12 -18 4 -23 -13 -8 34 -50 56 -50 8 0 22 -9 31 -20 10 -11 29 -20 43 -21 l25 -1 -25 -8 c-24 -8 -24 -8 7 -9 17 -1 35 -5 38 -11 3 -5 14 -10 24 -10 9 0 40 -17 68 -37 l52 -38 -6 -62 c-5 -58 -4 -62 22 -79 16 -10 22 -20 15 -24 -14 -9 -2 -40 15 -40 8 0 21 -7 29 -16 16 -15 16 -33 1 -68 -4 -10 -4 -21 2 -25 5 -3 12 -14 16 -23 7 -20 27 -24 27 -6 0 25 38 -25 45 -59 6 -31 9 -34 31 -29 17 5 24 2 24 -9 0 -8 5 -15 10 -15 6 0 10 5 10 10 0 6 5 10 10 10 6 0 10 -11 10 -25 0 -14 5 -25 10 -25 19 0 15 51 -7 95 -11 21 -11 26 -2 18 7 -7 21 -13 32 -13 14 0 17 5 12 21 -6 17 -3 20 17 17 18 -2 22 1 20 16 -3 17 -2 18 12 7 9 -8 16 -10 16 -6 0 4 7 2 15 -5 8 -7 15 -21 15 -32 0 -18 1 -18 16 -4 14 14 13 18 -5 38 -12 12 -21 18 -21 14 0 -15 -32 18 -41 41 -5 14 -17 23 -29 23 -14 0 -24 10 -31 30 -6 17 -15 30 -20 30 -11 0 -41 58 -37 72 2 6 18 -1 35 -16 31 -26 49 -34 38 -16 -4 6 1 7 11 3 14 -5 16 -3 10 13 -6 15 -5 17 5 7 24 -24 33 -13 10 11 -23 24 -23 24 -3 35 15 8 23 8 28 -1 4 -7 3 -8 -4 -4 -7 4 -12 2 -12 -3 0 -19 27 -12 33 8 4 18 8 18 38 7 19 -6 44 -17 57 -24 31 -17 63 -12 84 14 13 16 28 21 54 20 19 -1 40 4 46 12 12 14 12 14 -23 29 -31 13 -74 92 -59 107 6 6 10 20 10 32 0 13 8 24 19 27 16 4 20 15 23 53 3 42 7 51 31 62 19 9 27 21 27 38 0 14 13 39 30 57 16 18 30 38 30 45 0 6 11 12 25 12 15 0 25 -6 25 -15 0 -15 52 -29 107 -28 18 1 30 -3 27 -8 -3 -5 -10 -9 -15 -9 -13 0 -55 -40 -43 -41 13 -2 26 -5 52 -14 18 -6 22 -14 20 -34 -3 -22 1 -26 26 -29 19 -2 32 2 38 12 5 9 20 16 33 16 13 0 27 5 30 10 3 6 22 10 41 10 24 0 34 5 34 15 0 17 5 14 51 -27 10 -10 25 -18 32 -18 7 0 22 -7 33 -15 10 -8 25 -15 33 -15 8 0 22 -7 32 -16 15 -13 24 -14 49 -6 25 9 36 8 63 -7 17 -11 48 -22 67 -26 19 -4 56 -20 81 -36 41 -26 52 -29 100 -23 l54 6 65 -57 c110 -95 375 -216 357 -162 -2 6 -11 12 -20 12 -10 0 -60 47 -112 104 -82 88 -95 108 -95 137 0 33 -29 74 -63 88 -8 3 -9 7 -2 13 6 4 15 21 20 37 10 31 61 66 83 58 6 -2 12 2 12 10 0 20 25 41 90 74 30 16 57 30 60 32 3 2 -8 14 -25 27 -24 20 -29 31 -27 59 2 28 -5 43 -31 73 -43 48 -53 67 -61 120 -6 42 -6 42 31 52 21 6 61 11 89 11 27 0 55 5 61 11 20 20 143 14 208 -9 45 -17 71 -21 107 -16 33 5 48 3 48 -5 0 -6 9 -11 19 -11 11 0 26 -7 35 -15 18 -19 42 -19 49 -1 4 10 17 13 44 9 71 -9 87 49 20 72 -51 17 -72 35 -55 47 13 9 6 16 -52 58 -20 14 -21 18 -10 62 10 41 10 50 -6 77 -25 42 -56 41 -95 -4 -42 -47 -75 -47 -109 1 -14 19 -36 49 -49 65 -23 29 -23 31 -6 49 10 11 31 20 47 20 67 0 91 80 39 128 -37 34 -51 70 -51 130 -1 113 -27 225 -84 351 -39 87 -53 128 -46 136 6 7 32 20 58 30 102 38 210 115 212 150 0 6 -19 29 -42 52 -49 47 -110 68 -228 78 -106 10 -111 11 -169 36 -39 16 -55 19 -63 11 -9 -9 -6 -17 10 -32 12 -12 26 -19 31 -16 10 6 88 -30 108 -49 19 -19 16 -25 -12 -25 -18 0 -23 -4 -19 -15 5 -11 2 -13 -10 -9 -8 3 -15 9 -15 12 3 20 -15 51 -32 55 -21 6 -27 -9 -6 -16 6 -2 -6 -8 -28 -12 -22 -4 -44 -11 -50 -15 -5 -4 -31 -7 -58 -7 -26 -1 -54 -6 -62 -13 -7 -6 -24 -10 -37 -8 -28 4 -36 34 -11 41 10 3 0 5 -22 6 -22 0 -50 -6 -62 -14 -11 -8 -36 -16 -54 -17 -19 -1 -52 -13 -74 -25 -22 -13 -49 -23 -60 -23 -31 -1 -61 -23 -60 -45 0 -11 -7 -23 -15 -27 -27 -12 -77 -8 -90 7 -7 8 -19 15 -27 15 -28 0 -6 24 32 34 l38 11 -34 26 c-27 21 -49 27 -107 31 -74 5 -106 -5 -52 -17 28 -6 30 -10 30 -49 0 -36 4 -45 25 -54 26 -12 31 -27 16 -51 -6 -10 -13 -11 -29 -2 -11 6 -30 11 -41 11 -12 0 -21 7 -21 16 0 10 -10 6 -32 -15 -18 -17 -40 -31 -48 -31 -8 0 -28 -11 -44 -23 l-29 -23 23 -22 c37 -34 15 -46 -53 -28 -30 8 -65 20 -78 26 -16 9 -27 9 -44 0 -24 -13 -23 -40 1 -40 8 0 14 -4 14 -10 0 -5 13 -10 29 -10 16 0 31 -6 35 -15 9 -26 -51 -22 -103 6 -20 10 -44 19 -53 19 -10 0 -18 6 -18 13 0 8 -9 22 -20 32 -15 14 -17 22 -9 37 12 23 -8 43 -53 53 -14 3 -28 12 -31 19 -4 9 14 8 77 -4 208 -43 266 -43 328 1 32 23 35 45 10 76 -17 21 -91 57 -100 49 -2 -3 -19 2 -36 11 -17 9 -33 16 -36 16 -8 -1 -31 8 -80 29 -25 11 -87 24 -137 30 -61 7 -93 15 -93 23 0 14 -69 28 -84 17 -6 -4 -31 -5 -56 -2 l-45 5 33 12 c19 7 31 16 28 21 -8 13 -124 44 -136 37 -6 -3 -10 -1 -10 4 0 6 -15 11 -34 11 -23 0 -38 -7 -49 -22 -11 -16 -16 -18 -17 -8 0 8 -12 21 -27 28 -33 15 -40 15 -48 1z m45 -19 c0 -5 -5 -10 -11 -10 -5 0 -7 5 -4 10 3 6 8 10 11 10 2 0 4 -4 4 -10z m110 6 c0 -9 -30 -14 -35 -6 -4 6 3 10 14 10 12 0 21 -2 21 -4z m-460 -96 c0 -5 -7 -7 -15 -4 -8 4 -15 8 -15 10 0 2 7 4 15 4 8 0 15 -4 15 -10z m-100 -20 c0 -5 -8 -10 -17 -10 -15 0 -16 2 -3 10 19 12 20 12 20 0z m-106 -66 c3 -8 2 -12 -4 -9 -6 3 -10 10 -10 16 0 14 7 11 14 -7z m79 9 c-7 -2 -19 -2 -25 0 -7 3 -2 5 12 5 14 0 19 -2 13 -5z m446 -219 c21 -4 31 -12 31 -24 0 -14 -5 -17 -21 -13 -16 4 -20 2 -17 -8 6 -16 -56 -79 -78 -79 -8 0 -14 -4 -14 -8 0 -14 -58 -42 -73 -36 -8 3 -18 1 -22 -5 -3 -6 1 -14 9 -17 14 -5 14 -8 1 -20 -11 -11 -12 -20 -5 -34 6 -11 14 -28 18 -37 5 -10 7 -41 6 -69 -2 -43 0 -51 14 -50 9 0 16 -4 15 -10 -1 -7 13 -15 32 -18 18 -4 35 -11 37 -17 2 -7 30 -3 77 9 41 11 81 18 88 15 8 -3 18 -1 22 5 3 6 38 13 76 16 58 4 74 2 95 -14 28 -21 25 -29 -13 -32 -15 -1 -27 -8 -27 -16 0 -13 -50 -12 -150 1 -47 6 -164 -47 -132 -60 17 -7 15 -24 -3 -17 -8 4 -15 12 -15 20 0 8 -6 14 -12 13 -19 -1 -55 -17 -40 -18 18 -1 15 -21 -4 -21 -13 0 -15 -6 -9 -27 8 -33 16 -42 22 -25 3 6 13 12 24 12 10 0 19 4 19 9 0 12 39 21 46 10 3 -5 13 -9 22 -9 34 0 24 -99 -9 -100 -3 0 -22 15 -43 34 -34 30 -41 32 -66 23 -39 -15 -64 -75 -57 -137 6 -51 -11 -80 -46 -80 -9 0 -17 -7 -17 -15 0 -9 -11 -20 -24 -27 -27 -12 -61 -4 -51 12 18 29 -124 16 -150 -15 -5 -6 -38 -17 -72 -25 -65 -13 -93 -6 -93 25 0 28 -28 24 -124 -19 -21 -9 -41 -14 -45 -11 -8 9 39 46 49 40 4 -3 10 2 14 10 3 8 13 15 21 15 9 0 13 5 10 10 -4 6 -12 7 -18 3 -8 -5 -8 -2 0 9 7 8 10 18 6 21 -3 4 -1 7 5 7 7 0 12 8 13 18 1 11 4 8 8 -8 6 -22 13 -25 51 -25 37 0 45 4 49 20 5 29 31 44 74 45 28 0 37 4 37 18 0 14 2 15 10 2 5 -8 11 -12 13 -10 12 13 36 84 31 89 -4 3 -9 0 -11 -6 -8 -23 -24 -14 -18 10 5 18 11 54 14 88 1 4 11 10 24 14 12 4 24 8 27 9 3 1 15 5 28 10 12 4 22 14 22 23 0 9 7 21 15 27 12 9 12 15 2 35 -12 25 -20 30 -72 53 -31 14 -42 37 -29 66 4 9 7 29 7 43 0 17 9 32 28 45 16 10 29 24 29 29 0 10 70 45 91 45 5 0 26 16 47 36 27 26 33 37 23 43 -11 7 -9 15 9 39 13 17 27 29 32 26 4 -3 8 0 8 5 0 12 79 15 129 5z m-779 -96 c0 -14 -48 -58 -63 -58 -5 0 -4 7 3 15 7 8 9 15 5 15 -5 0 2 9 15 20 26 23 40 25 40 8z m-183 -114 c-3 -3 -12 -4 -19 -1 -8 3 -5 6 6 6 11 1 17 -2 13 -5z m213 -624 c0 -4 -7 -11 -16 -14 -8 -3 -12 -2 -9 4 3 6 1 10 -4 10 -6 0 -11 4 -11 9 0 5 9 7 20 4 11 -3 20 -9 20 -13z m602 -2 c-7 -7 -12 -8 -12 -2 0 14 12 26 19 19 2 -3 -1 -11 -7 -17z m-652 -17 c0 5 6 4 14 -3 21 -19 -9 -34 -40 -19 -33 15 -32 33 1 21 16 -6 25 -6 25 1z m-345 -180 c-3 -6 -11 -11 -16 -11 -5 0 -4 6 3 14 14 16 24 13 13 -3z m2225 -480 c-19 -10 -38 -17 -42 -14 -5 2 -8 -2 -8 -10 0 -8 10 -18 23 -21 19 -6 20 -8 6 -16 -9 -5 -20 -21 -23 -36 -7 -25 -9 -26 -66 -21 -32 2 -63 0 -68 -5 -6 -6 -18 1 -30 17 l-21 27 27 29 c15 16 41 30 57 33 17 2 38 7 49 11 26 11 77 23 106 24 22 1 21 -1 -10 -18z m-1130 -734 c5 2 7 -4 4 -12 -4 -8 -10 -15 -15 -15 -5 0 -12 -1 -16 -2 -4 -2 -8 13 -10 32 -3 34 -3 34 13 15 8 -11 19 -19 24 -18z m190 23 c13 -8 13 -10 -2 -10 -9 0 -20 5 -23 10 -8 13 5 13 25 0z m-63 -36 c-3 -3 -12 -4 -19 -1 -8 3 -5 6 6 6 11 1 17 -2 13 -5z m20 -36 c-3 -8 -6 -5 -6 6 -1 11 2 17 5 13 3 -3 4 -12 1 -19z"/>
		<path d="M13756 10728 c-4 -9 -18 -19 -31 -22 -13 -3 -25 -14 -27 -24 -6 -26 9 -73 28 -87 16 -11 15 -14 -10 -30 -21 -14 -29 -16 -35 -6 -6 9 -10 7 -13 -6 -3 -11 1 -28 8 -38 8 -10 12 -28 9 -39 -15 -79 -15 -85 7 -97 18 -9 24 -8 34 6 7 10 20 15 28 12 19 -8 25 11 28 96 3 57 0 71 -15 82 -16 12 -17 18 -7 52 13 42 10 130 -4 101z"/>
		<path d="M14777 10103 c-4 -3 -7 -14 -7 -23 0 -13 12 -19 42 -24 23 -4 45 -11 48 -17 4 -6 27 -6 60 -2 51 8 70 21 41 31 -9 3 -11 0 -6 -9 6 -10 2 -9 -11 2 -10 9 -41 17 -69 18 -27 2 -52 7 -53 12 -2 5 -8 6 -14 3 -6 -4 -13 -1 -17 5 -4 6 -10 8 -14 4z"/>
	</g>
	<g id="asia">
		<path d="M18374 13421 c-27 -12 -38 -39 -23 -57 9 -12 3 -14 -34 -14 -25 0 -47 -4 -49 -9 -1 -5 -20 -12 -41 -15 -28 -4 -36 -3 -31 5 10 17 -184 3 -201 -15 -7 -7 -44 -16 -81 -19 -37 -4 -78 -14 -91 -23 -15 -9 -34 -13 -49 -10 -14 4 -24 2 -24 -4 0 -5 -7 -10 -15 -10 -8 0 -15 -8 -16 -17 0 -11 -3 -13 -6 -5 -7 18 -40 15 -47 -4 -4 -9 -3 -20 0 -23 4 -3 9 0 11 6 3 9 10 9 28 -3 13 -8 31 -14 41 -12 9 2 19 -3 21 -9 6 -16 -73 -18 -82 -3 -3 6 -14 10 -23 10 -14 0 -14 -2 -3 -9 21 -13 -10 -20 -108 -23 l-84 -2 29 -23 c16 -13 39 -33 50 -44 13 -13 40 -23 68 -26 25 -3 46 -9 46 -14 0 -4 8 -10 18 -12 9 -3 2 -5 -16 -6 -19 0 -46 5 -60 13 -24 13 -86 27 -188 43 -20 3 -35 -1 -43 -11 -12 -14 -10 -16 10 -17 26 -1 20 -4 -25 -14 -28 -6 -28 -7 -9 -20 10 -7 35 -18 54 -24 33 -11 33 -11 -14 -7 -49 4 -76 24 -77 57 0 18 -41 59 -58 59 -7 0 -21 6 -32 12 -14 9 -22 10 -31 1 -8 -8 -2 -14 21 -22 18 -6 37 -8 43 -4 5 3 7 1 3 -5 -3 -6 -2 -13 4 -17 18 -11 10 -23 -20 -30 -16 -4 -30 -13 -30 -20 0 -7 -5 -15 -12 -17 -6 -2 14 -17 46 -33 54 -27 56 -30 50 -61 -5 -26 -2 -35 15 -46 12 -7 21 -19 21 -27 0 -11 15 -12 73 -8 62 5 67 4 34 -5 -51 -14 -57 -34 -21 -63 23 -19 27 -26 17 -36 -7 -7 -13 -23 -13 -35 0 -17 -8 -24 -30 -29 -18 -4 -30 -13 -30 -22 0 -12 -7 -14 -32 -9 -18 3 -37 11 -43 17 -7 7 -5 8 6 4 11 -4 21 5 34 35 10 22 21 40 25 40 5 0 7 15 6 33 -1 28 -7 35 -43 51 -24 10 -43 24 -43 30 0 6 -10 27 -22 46 -12 19 -23 43 -25 53 -4 25 -26 45 -58 53 -19 5 -23 10 -16 17 15 15 13 48 -3 70 -10 13 -35 21 -83 26 -41 5 -54 9 -33 10 33 2 34 2 16 16 -25 19 -100 21 -94 3 3 -7 -1 -19 -9 -26 -7 -7 -13 -31 -13 -52 0 -34 -4 -42 -30 -55 -37 -19 -39 -42 -5 -55 19 -7 25 -17 25 -39 0 -32 22 -56 43 -48 8 3 27 -4 43 -14 16 -11 39 -24 52 -29 22 -9 29 -25 15 -33 -5 -3 -39 8 -78 24 -101 41 -118 39 -72 -9 20 -21 37 -42 37 -47 -2 -35 -111 -112 -212 -150 -26 -10 -52 -23 -58 -30 -7 -8 7 -49 46 -136 57 -126 83 -238 84 -351 0 -60 14 -96 51 -130 52 -48 28 -128 -39 -128 -16 0 -37 -9 -47 -20 -17 -18 -17 -20 6 -49 13 -16 35 -46 49 -65 34 -48 67 -48 109 -1 39 45 70 46 95 4 16 -26 16 -37 6 -77 -10 -43 -10 -48 9 -62 66 -49 66 -49 53 -58 -17 -12 4 -30 55 -47 67 -23 51 -81 -20 -72 -27 4 -40 1 -44 -9 -7 -18 -31 -18 -49 1 -9 8 -24 15 -35 15 -10 0 -19 5 -19 11 0 8 -15 10 -48 5 -36 -5 -62 -1 -107 16 -65 23 -188 29 -208 9 -6 -6 -34 -11 -61 -11 -28 0 -68 -5 -89 -11 -37 -10 -37 -10 -31 -52 8 -53 18 -72 61 -120 27 -30 33 -45 31 -73 -2 -29 3 -40 25 -56 15 -11 27 -26 27 -33 0 -18 34 -28 70 -20 23 5 32 2 45 -19 16 -23 29 -119 15 -111 -3 2 -29 6 -57 9 -46 4 -52 2 -62 -21 -6 -13 -9 -29 -6 -34 4 -5 -8 -9 -25 -9 -28 0 -30 -2 -20 -20 6 -11 17 -20 25 -20 8 0 22 -13 32 -30 9 -16 21 -30 25 -30 4 0 8 -9 8 -21 0 -13 4 -18 12 -13 6 4 16 0 22 -8 7 -9 23 -18 36 -20 34 -4 39 -14 33 -59 -3 -22 -2 -39 4 -39 16 0 45 -61 39 -83 -7 -29 16 -73 35 -69 12 2 14 -5 11 -30 -4 -25 -2 -30 11 -25 25 9 44 -24 55 -93 6 -36 13 -72 16 -80 5 -13 -8 -19 -62 -33 -82 -19 -120 -12 -177 33 -21 17 -48 30 -60 30 -30 0 -55 30 -62 75 -4 26 -2 40 8 45 8 6 13 28 14 57 0 46 1 48 28 48 15 -1 27 4 27 10 0 7 -14 9 -33 7 -48 -5 -251 99 -337 173 l-65 57 -54 -6 c-48 -6 -59 -3 -100 23 -25 16 -62 32 -81 36 -19 4 -50 15 -68 26 -25 14 -38 16 -59 8 l-26 -10 23 -24 c12 -13 48 -36 79 -51 43 -21 62 -37 75 -64 34 -70 -10 -100 -149 -105 -53 -2 -95 1 -95 6 0 5 -13 9 -29 9 -17 0 -33 5 -36 10 -4 6 -15 8 -25 5 -13 -4 -22 1 -30 15 -8 15 -17 19 -32 14 -15 -4 -26 0 -37 13 -15 18 -23 19 -98 13 -80 -8 -140 -31 -169 -66 -8 -10 -28 -11 -83 -5 -74 7 -104 -2 -79 -27 24 -24 -14 -38 -107 -40 -49 -1 -91 -6 -93 -11 -2 -6 -10 -7 -18 -4 -8 3 -14 0 -14 -6 0 -6 7 -11 15 -11 9 0 15 -9 15 -25 0 -23 8 -29 37 -26 6 1 10 -6 8 -16 -1 -10 0 -22 4 -28 3 -5 6 -19 8 -30 1 -11 -1 -14 -3 -7 -9 20 -31 13 -29 -10 1 -15 12 -26 36 -34 19 -7 28 -13 21 -13 -10 -1 -10 -5 0 -23 7 -13 17 -26 22 -29 4 -4 0 -12 -10 -18 -20 -11 -16 -13 31 -14 16 0 17 -1 3 -4 -10 -3 -18 -9 -18 -15 0 -5 7 -8 15 -4 8 3 15 1 15 -4 0 -6 7 -10 15 -10 8 0 15 5 15 11 0 16 47 2 70 -21 15 -15 31 -20 60 -18 39 3 45 10 41 46 -4 29 77 3 123 -40 30 -27 113 -17 139 18 21 27 38 30 67 12 15 -10 23 -9 40 7 25 22 39 13 16 -11 -12 -11 -14 -20 -7 -27 6 -6 6 -18 1 -32 -5 -12 -5 -26 -1 -31 12 -13 21 -80 12 -90 -13 -15 -49 -125 -61 -185 -12 -62 -34 -90 -71 -90 -13 -1 -39 -3 -56 -5 -29 -4 -33 -9 -33 -35 0 -48 20 -115 41 -138 10 -11 19 -27 19 -34 0 -15 72 -97 85 -97 3 0 13 7 21 15 9 8 24 15 35 15 10 0 19 -7 19 -15 0 -8 5 -15 10 -15 6 0 10 -5 10 -10 0 -6 8 -19 18 -30 9 -10 26 -36 37 -57 11 -21 28 -47 38 -58 24 -26 50 -75 43 -82 -9 -9 27 -63 41 -63 8 0 16 -7 19 -15 4 -8 11 -12 17 -8 5 3 7 1 4 -4 -4 -6 2 -22 13 -36 11 -14 20 -32 20 -40 0 -9 5 -19 11 -23 7 -4 9 -21 5 -44 -4 -28 -2 -41 10 -51 8 -7 13 -21 11 -31 -4 -12 3 -24 18 -34 14 -9 27 -23 30 -32 2 -10 18 -26 34 -37 16 -10 28 -22 26 -26 -3 -3 7 -11 20 -17 19 -9 25 -19 25 -43 0 -19 7 -37 18 -45 9 -7 17 -17 17 -22 0 -5 17 -26 38 -46 20 -21 37 -44 37 -52 0 -8 4 -14 9 -14 5 0 14 -14 20 -32 11 -31 11 -31 -9 -13 -11 10 -17 22 -14 26 3 5 -2 6 -11 3 -10 -4 -15 -2 -13 7 2 7 -5 15 -14 17 -13 2 -16 -1 -12 -15 5 -17 5 -17 -9 0 -8 10 -18 14 -20 9 -7 -10 47 -94 55 -86 9 8 51 -37 53 -55 0 -9 4 -21 7 -26 8 -14 42 -127 43 -145 3 -48 17 -68 52 -75 20 -3 40 -2 46 4 5 5 15 7 22 5 7 -3 28 9 46 25 22 21 44 31 65 31 34 0 99 24 109 40 3 5 21 10 40 10 24 0 39 7 54 26 13 17 49 36 103 55 97 35 144 61 140 79 -6 27 10 48 51 65 78 32 88 35 121 35 37 0 52 13 58 50 2 19 10 26 33 28 37 5 55 19 55 43 0 22 36 49 66 49 19 0 21 5 20 61 -1 65 10 82 36 55 13 -13 17 -12 30 3 15 18 13 45 -3 35 -17 -10 -9 15 15 43 29 35 56 87 56 108 0 9 -9 15 -21 15 -12 0 -23 8 -26 20 -3 11 -9 20 -14 20 -5 0 -9 5 -9 11 0 21 -32 42 -78 50 -90 17 -134 73 -134 170 0 62 -12 74 -33 32 -21 -40 -139 -160 -153 -155 -7 2 -12 0 -12 -5 0 -5 -16 -7 -35 -5 -19 2 -35 8 -35 13 0 5 -4 9 -10 9 -5 0 -10 -6 -10 -14 0 -23 -20 -29 -39 -12 -10 9 -23 16 -30 16 -8 0 -10 7 -4 23 11 32 4 120 -10 129 -24 15 -36 7 -48 -32 l-12 -40 -19 27 c-20 32 -23 43 -8 43 6 0 10 -7 10 -16 0 -8 5 -12 10 -9 17 11 11 37 -10 42 -11 3 -21 9 -21 14 -1 5 -2 13 -3 19 0 5 -10 16 -21 24 -11 8 -20 20 -20 28 -1 7 -6 12 -13 11 -7 -2 -12 1 -12 6 0 5 -9 13 -20 16 -11 3 -20 13 -20 21 0 8 -4 14 -8 14 -14 0 -53 96 -46 116 4 12 3 15 -3 7 -6 -8 -14 -9 -23 -3 -13 8 -13 10 0 10 9 0 23 8 32 18 33 34 44 40 62 30 9 -5 24 -7 34 -4 12 4 24 -5 40 -27 12 -18 22 -38 22 -44 0 -6 4 -13 9 -15 5 -1 22 -25 37 -52 21 -35 39 -51 64 -60 19 -7 48 -24 64 -39 16 -15 36 -27 45 -27 13 0 13 -2 3 -9 -10 -6 -3 -10 22 -15 20 -4 34 -11 31 -17 -4 -5 -1 -9 4 -9 6 0 11 5 11 10 0 7 7 7 20 0 11 -6 25 -8 31 -5 5 4 26 9 46 11 40 5 66 21 57 35 -8 14 34 10 43 -3 4 -7 13 -31 18 -53 13 -49 51 -70 144 -80 75 -8 106 -13 141 -21 43 -11 130 -13 130 -4 0 4 18 6 40 3 24 -4 40 -2 40 5 0 6 13 7 36 2 20 -5 64 -4 101 2 74 11 93 7 93 -22 0 -13 7 -20 19 -20 12 0 21 -10 26 -27 8 -34 33 -63 53 -63 8 0 28 -13 43 -30 41 -42 82 -61 121 -54 31 5 32 5 14 -10 -20 -16 -36 -20 -68 -17 -10 1 -18 -3 -18 -10 0 -19 138 -149 157 -149 52 2 127 70 104 93 -10 10 -3 47 9 47 4 0 5 -11 2 -25 -2 -15 0 -25 7 -25 7 0 9 -5 6 -10 -4 -6 1 -24 9 -42 11 -21 14 -43 10 -66 -4 -19 -2 -50 4 -70 26 -91 45 -161 57 -214 7 -31 30 -89 50 -130 21 -40 46 -89 55 -108 10 -19 25 -61 33 -94 9 -32 31 -81 50 -110 37 -55 87 -173 87 -203 0 -26 54 -109 80 -123 29 -15 65 8 73 48 7 32 42 48 79 36 15 -4 19 -2 16 7 -3 8 -11 14 -19 14 -16 0 -16 8 -5 48 6 20 15 27 33 27 22 0 24 3 18 29 -10 49 -9 129 3 143 16 19 17 101 2 178 -19 107 -14 136 26 126 19 -5 25 -2 30 19 3 14 12 25 20 25 34 0 64 24 64 52 0 15 4 28 9 28 16 0 116 101 148 150 17 26 48 55 70 65 21 11 48 30 61 42 23 21 25 33 20 82 -2 13 4 27 12 31 8 4 25 12 38 19 18 9 24 9 28 -3 6 -15 44 -13 98 4 16 6 41 10 55 10 35 1 76 33 68 53 -3 9 -2 19 2 22 5 2 11 -5 14 -16 3 -12 10 -18 15 -15 11 7 22 -16 22 -45 0 -24 22 -61 67 -112 18 -20 33 -42 33 -48 0 -6 8 -9 18 -7 20 6 46 -17 39 -35 -2 -7 0 -20 5 -29 6 -13 5 -18 -4 -18 -9 0 -9 -3 0 -12 10 -10 15 -10 20 -1 12 18 29 2 51 -48 17 -37 19 -58 15 -121 l-6 -75 28 -8 c56 -15 74 -14 88 7 8 11 30 31 50 44 23 16 36 33 36 47 1 31 67 -108 76 -158 3 -22 13 -52 20 -67 8 -15 14 -38 14 -53 0 -15 6 -25 14 -25 8 0 19 -14 25 -31 15 -42 14 -49 -4 -43 -11 5 -13 2 -9 -10 3 -9 10 -16 15 -16 4 0 3 -14 -3 -31 -8 -23 -13 -27 -19 -17 -5 7 -9 9 -9 3 0 -19 16 -34 35 -32 22 2 33 -29 16 -46 -7 -7 -15 -6 -26 3 -9 8 -15 8 -15 2 0 -6 8 -15 17 -21 19 -10 24 -78 10 -136 -10 -42 3 -129 16 -116 20 20 47 13 47 -11 0 -19 2 -20 10 -8 7 12 10 12 10 1 0 -7 14 -30 30 -51 27 -34 29 -40 15 -48 -15 -8 -15 -10 -1 -21 14 -11 16 -11 16 5 0 17 1 17 15 -2 8 -12 13 -40 12 -63 -1 -23 3 -45 9 -49 6 -4 14 -26 18 -49 3 -24 17 -54 31 -69 14 -15 25 -37 25 -49 0 -16 19 -35 73 -71 79 -53 97 -70 93 -87 -2 -7 -1 -9 1 -4 9 15 35 7 29 -9 -4 -12 -2 -15 9 -10 10 4 15 -1 15 -14 0 -11 5 -20 11 -20 7 0 9 9 6 21 -4 16 -3 18 8 9 9 -8 15 -8 20 0 10 16 -4 30 -33 31 -17 1 -21 3 -9 6 9 2 17 11 17 19 0 8 -3 13 -7 11 -5 -3 -9 6 -9 19 -1 13 -14 40 -29 60 -24 31 -27 44 -27 107 1 40 -4 86 -11 102 -11 29 -90 115 -105 115 -4 0 -16 14 -26 31 -13 21 -24 29 -36 26 -31 -8 -57 20 -71 75 -6 29 -18 58 -24 63 -15 12 -28 75 -16 75 10 0 9 26 -2 36 -4 4 -7 -3 -7 -15 0 -26 -28 -40 -41 -20 -13 19 -5 103 15 169 10 30 18 82 19 115 2 58 3 60 30 63 25 3 27 1 27 -36 0 -37 1 -39 35 -40 43 -2 75 -18 75 -38 0 -9 7 -14 18 -12 11 2 22 -8 34 -32 10 -19 17 -41 18 -47 0 -16 36 -53 51 -53 5 0 7 6 3 13 -4 7 -3 9 2 4 9 -9 10 -13 13 -42 2 -24 21 -18 21 7 0 19 2 20 18 6 9 -8 26 -18 37 -22 14 -5 16 -9 7 -15 -18 -11 -14 -121 5 -121 7 0 18 9 25 20 7 12 32 32 55 46 39 22 55 47 58 89 1 6 6 9 13 7 17 -3 69 25 101 54 14 13 31 24 38 24 14 0 25 52 19 92 -2 15 1 25 5 22 5 -3 9 4 9 15 0 11 -4 22 -9 25 -4 3 -11 27 -14 53 -3 26 -13 62 -21 78 -9 17 -16 37 -16 46 0 8 -13 28 -30 44 -16 16 -30 34 -30 41 0 7 -8 15 -19 19 -23 7 -141 120 -141 134 0 6 -15 26 -34 46 -29 29 -34 42 -34 81 0 29 5 47 13 50 7 3 21 21 30 40 9 19 20 32 25 29 4 -3 11 2 14 10 3 8 11 14 18 13 7 -2 12 4 12 13 -2 21 66 45 93 34 10 -4 29 -7 42 -6 19 2 22 -1 17 -14 -9 -25 25 -94 47 -95 23 0 31 23 17 50 -8 15 -8 20 -1 16 7 -4 11 1 11 13 0 12 6 22 13 22 6 1 17 2 22 4 6 1 16 3 23 3 7 1 10 7 6 14 -4 6 -3 8 4 4 6 -3 13 -2 17 3 4 7 15 7 31 1 36 -14 47 -12 40 6 -3 8 -2 12 4 9 6 -3 10 -1 10 5 0 6 5 8 11 4 16 -9 29 16 24 46 -4 24 -4 24 7 -2 11 -26 48 -40 48 -19 0 5 18 19 41 30 22 12 38 17 34 11 -3 -5 -1 -10 4 -10 6 0 11 5 11 10 0 6 3 9 8 9 35 -6 55 4 65 30 6 17 20 32 31 35 12 3 30 19 41 36 11 16 25 30 32 30 16 0 36 37 27 52 -4 6 -3 9 2 6 11 -7 35 17 27 26 -4 3 3 6 15 6 13 0 22 6 22 16 0 8 -4 13 -9 10 -13 -8 -22 36 -11 49 6 7 7 15 3 18 -3 4 -1 7 5 7 7 0 12 9 12 19 0 11 5 23 10 26 6 3 10 17 10 30 0 34 10 55 26 55 8 0 15 6 15 13 5 36 4 54 -4 70 -5 11 -4 16 4 15 7 -2 12 18 14 60 1 34 -2 62 -7 62 -4 0 -9 -4 -9 -10 -1 -5 -2 -14 -3 -19 -2 -20 -16 -23 -32 -6 -11 10 -25 14 -40 11 -34 -9 -21 19 17 36 30 14 36 23 19 33 -6 4 -8 10 -5 14 2 5 -8 11 -24 14 -32 7 -48 32 -25 41 7 3 13 0 11 -6 -1 -6 4 -13 11 -15 6 -3 12 2 12 9 0 12 -34 42 -85 76 -5 4 -17 19 -25 33 -40 70 -84 116 -130 138 -45 21 -49 26 -43 49 3 14 19 38 35 54 29 29 37 44 16 32 -7 -4 2 7 20 25 22 20 43 31 63 31 24 0 29 4 29 24 0 31 -6 34 -62 40 -25 2 -55 9 -66 15 -21 11 -76 5 -68 -8 2 -3 -2 -15 -10 -25 -12 -16 -18 -18 -39 -8 -14 6 -25 20 -25 29 -1 30 -23 50 -58 51 -46 1 -82 26 -82 58 0 20 4 25 16 20 30 -11 65 5 70 33 3 15 19 36 35 46 16 11 29 26 29 33 0 23 25 40 53 35 40 -8 53 -28 37 -61 -19 -37 -18 -45 3 -61 17 -12 17 -15 3 -30 -15 -17 -12 -31 5 -31 5 0 26 19 48 41 32 33 48 42 85 46 25 3 53 2 63 -2 10 -5 22 -7 26 -6 4 0 17 -3 27 -9 17 -9 20 -21 20 -78 0 -47 3 -63 10 -52 5 8 10 11 10 5 0 -14 49 -35 56 -24 3 5 13 5 25 -1 10 -6 19 -8 19 -5 0 3 11 -2 25 -11 25 -16 34 -44 15 -44 -17 0 -11 -17 18 -48 42 -46 51 -59 45 -66 -11 -11 -10 -61 1 -68 6 -4 11 -17 11 -30 0 -21 4 -23 45 -20 25 1 47 7 48 12 2 6 12 10 23 10 10 0 19 4 19 10 0 5 6 7 14 4 20 -8 56 31 56 59 0 40 -59 144 -107 189 -25 24 -55 53 -67 66 -11 13 -38 33 -59 45 -20 11 -44 31 -52 44 -15 22 -14 24 12 40 15 8 40 32 54 53 24 34 25 39 12 64 -17 32 -14 82 5 79 6 -2 12 6 12 18 0 11 4 18 9 15 5 -4 14 6 19 21 6 16 11 22 11 14 1 -11 5 -10 16 5 12 15 14 16 15 3 0 -22 70 -42 102 -30 32 12 88 77 88 101 0 27 28 130 39 144 5 6 9 52 9 101 0 50 4 101 10 115 7 20 4 37 -15 80 -13 30 -29 58 -36 62 -6 4 -8 10 -4 14 4 4 -3 14 -14 22 -37 25 -76 132 -49 132 20 0 98 -65 104 -85 3 -11 21 -36 39 -55 18 -19 43 -56 55 -81 12 -25 35 -58 51 -72 16 -14 34 -41 41 -61 6 -20 15 -36 20 -36 5 0 13 -15 19 -33 7 -19 25 -47 42 -63 l31 -29 -7 36 c-7 36 -6 36 21 31 16 -3 36 -15 46 -26 14 -17 17 -18 18 -5 0 19 -33 59 -48 59 -6 0 -22 10 -35 23 -14 12 -36 30 -50 39 -14 10 -32 37 -40 60 -8 24 -18 51 -22 61 -11 26 37 22 85 -8 42 -27 50 -29 50 -17 0 4 -15 16 -32 27 -18 10 -51 37 -74 59 -22 23 -80 77 -128 121 -48 44 -94 92 -102 107 -18 34 -58 78 -71 78 -6 0 -21 12 -34 28 -36 41 -55 53 -73 46 -14 -5 -11 -10 15 -26 31 -19 31 -19 13 -39 -17 -19 -17 -22 -3 -32 21 -16 53 -66 47 -73 -8 -8 -58 49 -58 66 0 5 -28 24 -62 41 -35 16 -76 37 -91 45 -33 18 -121 26 -108 10 10 -13 -4 -56 -19 -56 -5 0 -10 9 -10 20 0 11 -7 20 -15 20 -8 0 -15 9 -15 20 0 11 -5 20 -11 20 -6 0 -9 6 -6 14 8 21 -28 50 -50 41 -10 -5 -23 -7 -30 -6 -6 1 -14 -3 -18 -9 -6 -9 22 -14 70 -12 11 0 14 -2 7 -5 -10 -4 -9 -9 4 -24 9 -10 12 -19 6 -19 -5 0 -8 -10 -5 -22 3 -15 -2 -11 -15 12 -17 31 -25 36 -71 41 -86 11 -87 13 -49 61 43 55 59 86 46 90 -11 4 31 98 44 98 4 0 3 11 -2 25 -8 20 -6 27 5 31 8 4 15 17 15 30 0 16 8 27 21 32 33 13 176 15 184 3 3 -6 15 -11 26 -11 11 0 18 3 15 8 -2 4 32 6 76 5 76 -3 80 -2 75 18 -4 15 -1 19 11 15 40 -11 88 -20 96 -17 6 1 21 0 34 -4 19 -5 21 -9 12 -20 -13 -16 -2 -25 32 -25 79 0 98 2 98 11 0 6 11 8 28 4 16 -3 42 -1 57 5 35 13 24 24 -41 41 -44 11 -50 25 -32 71 5 14 10 41 11 59 2 31 5 33 42 37 22 2 49 3 60 3 11 -1 32 -1 48 -2 17 0 27 -5 27 -14 0 -20 38 -57 51 -50 5 4 18 -4 29 -17 13 -15 19 -18 20 -9 0 8 3 11 7 7 4 -3 12 8 17 26 9 25 17 34 39 36 24 3 40 22 17 22 -5 0 -21 12 -36 27 -26 26 -26 27 -5 34 24 9 54 1 45 -12 -6 -11 47 -79 62 -79 19 0 11 -33 -13 -55 -16 -14 -21 -28 -18 -44 2 -14 0 -30 -6 -38 -7 -7 -9 -27 -5 -43 7 -37 -8 -80 -29 -80 -8 0 -15 -4 -15 -10 0 -5 -10 -10 -22 -10 -23 0 -23 0 3 -24 19 -18 25 -32 22 -49 -8 -42 44 -110 160 -210 27 -23 68 -59 90 -81 23 -21 62 -55 87 -75 24 -20 55 -48 68 -63 13 -15 37 -37 52 -48 l29 -21 16 31 c18 35 13 81 -11 101 -18 15 -18 45 0 52 8 3 25 3 38 0 19 -4 15 3 -21 34 -35 32 -42 44 -36 62 6 19 11 21 42 15 30 -6 35 -4 31 12 -2 10 -21 30 -42 44 -61 42 -85 103 -31 78 14 -6 28 -8 32 -5 9 10 -37 57 -56 57 -22 1 -71 45 -71 64 0 21 -37 39 -66 32 -36 -9 -76 33 -68 72 5 23 0 35 -20 56 -25 24 -25 31 -3 27 4 -1 17 4 29 10 11 6 18 7 14 1 -3 -5 1 -12 9 -16 16 -6 29 9 21 23 -13 21 24 17 44 -4 25 -26 40 -25 40 4 0 38 93 41 169 6 58 -27 69 -27 53 1 -7 13 -4 23 14 41 13 13 27 35 30 48 3 14 17 28 35 34 16 5 29 15 29 20 0 6 6 11 14 11 7 0 20 7 27 16 13 16 52 15 132 -2 23 -5 27 -3 27 14 0 13 -9 23 -22 28 -13 3 -30 12 -38 19 -8 7 -26 16 -40 21 -39 14 -150 78 -150 87 0 4 9 17 19 29 26 27 11 52 -41 67 -21 7 -36 16 -33 21 3 6 32 -3 63 -19 48 -24 69 -29 127 -28 58 0 79 -4 120 -26 27 -15 60 -27 72 -27 11 0 49 -9 82 -19 57 -18 62 -18 72 -2 9 14 10 14 5 -1 -6 -20 19 -24 44 -8 13 8 11 11 -7 16 -13 4 -20 10 -17 15 3 5 0 9 -5 9 -6 0 -20 9 -30 19 -20 20 -20 20 6 23 15 2 29 9 31 17 3 10 0 12 -11 8 -10 -4 -14 -2 -11 6 2 7 -8 20 -24 29 -47 28 -218 68 -290 68 -50 0 -79 6 -117 24 -54 27 -503 139 -650 163 -49 8 -128 16 -175 18 -128 6 -243 15 -265 22 -16 4 -15 1 8 -21 15 -14 32 -26 37 -26 5 0 26 -10 47 -22 l38 -23 -28 -3 c-16 -2 -34 1 -41 7 -7 6 -34 14 -60 17 -26 4 -49 10 -51 14 -3 5 4 6 15 3 11 -3 20 0 20 6 0 6 -3 10 -7 10 -5 -1 -24 0 -43 1 l-35 3 35 7 35 7 -32 3 c-62 6 -68 5 -68 -10 0 -11 -11 -15 -45 -14 -81 3 -265 4 -280 2 -35 -5 -120 14 -120 28 0 19 -47 41 -127 60 -55 13 -99 15 -224 10 -125 -5 -162 -4 -191 8 -19 8 -56 17 -83 21 -69 8 -96 16 -89 26 16 26 -183 52 -213 28 -9 -8 -14 -9 -10 -2 11 17 -11 21 -198 38 -203 18 -196 18 -165 0 l25 -14 -37 -1 c-29 0 -36 -3 -32 -15 4 -8 18 -15 32 -15 14 0 22 -3 18 -7 -3 -4 6 -13 21 -20 l28 -13 -30 6 c-16 4 -39 6 -50 6 -11 -1 -48 -2 -83 -2 -34 0 -73 -5 -85 -9 -14 -5 -42 -5 -68 1 -24 5 -54 10 -66 11 -11 1 -19 5 -16 10 2 4 -1 7 -8 7 -6 0 -9 -8 -6 -17 21 -67 22 -63 -14 -57 -52 10 -130 48 -167 83 -18 17 -40 31 -48 31 -8 0 -14 6 -14 13 0 28 -181 79 -196 55 -3 -4 -11 -5 -17 -1 -7 4 -23 9 -37 10 -14 2 -45 8 -70 14 -32 7 -46 7 -48 0 -2 -6 -8 -9 -13 -5 -5 3 -9 0 -9 -5 0 -6 9 -16 20 -23 11 -7 20 -15 20 -18 0 -5 -85 -4 -180 4 -30 2 -64 4 -75 5 -15 1 -17 3 -6 10 8 5 9 11 3 15 -14 8 -256 11 -269 3 -15 -9 -83 31 -83 49 0 10 -13 14 -46 14 -37 0 -47 -4 -51 -19 -3 -13 -11 -17 -24 -14 -10 3 -26 2 -35 -1 -13 -5 -14 -9 -4 -20 9 -12 5 -17 -27 -25 -48 -14 -96 -14 -88 -1 3 6 17 10 30 10 13 0 28 6 32 13 10 15 36 31 95 60 26 12 50 28 53 36 9 23 -35 62 -65 58 -14 -2 -19 -2 -12 0 10 4 9 8 -5 19 -21 16 -37 18 -28 4 10 -16 -7 -12 -27 7 -15 13 -41 17 -141 17 -67 1 -133 -3 -146 -8 -18 -6 -22 -5 -19 5 7 20 -10 49 -28 49 -8 0 -12 -4 -9 -10 10 -15 -33 -12 -59 5 -27 18 -162 29 -192 16z m776 -241 c11 -7 7 -10 -17 -10 -18 0 -33 5 -33 10 0 13 30 13 50 0z m-1574 -381 c24 -27 12 -33 -16 -9 -13 11 -29 20 -36 20 -7 0 -15 4 -18 8 -10 17 53 -1 70 -19z m6239 -139 c3 -6 -1 -7 -9 -4 -18 7 -21 14 -7 14 6 0 13 -4 16 -10z m-190 -170 c8 -13 -15 -13 -35 0 -12 8 -11 10 7 10 12 0 25 -4 28 -10z m-3478 -727 c40 -93 45 -112 33 -130 -10 -16 -11 -16 -6 0 3 9 1 17 -4 17 -6 0 -10 -9 -10 -20 0 -12 7 -20 18 -20 10 0 13 -3 6 -8 -6 -4 -14 -16 -18 -27 -3 -13 -23 -27 -49 -36 -36 -14 -42 -19 -39 -42 3 -22 -2 -27 -37 -38 -30 -9 -47 -9 -63 -1 -22 10 -22 11 6 11 28 1 66 25 66 43 0 4 9 17 21 29 11 11 18 27 15 35 -3 7 0 17 7 21 33 21 42 100 21 176 -9 28 20 20 33 -10z m-1923 -722 c3 -5 -1 -11 -9 -15 -8 -3 -15 -12 -15 -21 0 -8 -7 -15 -15 -15 -10 0 -15 -10 -15 -31 0 -27 -2 -30 -15 -19 -18 15 -20 60 -3 60 6 0 9 3 6 6 -9 9 25 42 44 43 9 1 19 -3 22 -8z m59 2 c-7 -2 -19 -2 -25 0 -7 3 -2 5 12 5 14 0 19 -2 13 -5z m137 -13 c11 -8 7 -9 -15 -4 -37 8 -45 14 -19 14 10 0 26 -5 34 -10z m60 1 c0 -6 -9 -9 -20 -8 -11 1 -20 5 -20 9 0 4 9 8 20 8 11 0 20 -4 20 -9z m-1203 -17 c-3 -3 -12 -4 -19 -1 -8 3 -5 6 6 6 11 1 17 -2 13 -5z m-77 -44 c0 -5 -5 -10 -11 -10 -5 0 -7 -5 -4 -10 4 -6 15 -8 26 -5 14 5 20 0 25 -19 3 -14 12 -30 20 -37 11 -9 11 -16 -2 -41 -10 -20 -20 -28 -30 -24 -9 3 -22 6 -30 6 -10 0 -14 14 -14 54 0 30 -4 58 -10 61 -6 4 -5 11 3 20 14 17 27 19 27 5z m-35 -50 c10 -33 -6 -44 -21 -15 -17 34 -17 35 0 35 8 0 17 -9 21 -20z m-30 -78 c-6 -6 -25 45 -24 66 0 9 7 -1 15 -22 8 -22 12 -41 9 -44z m-274 -224 c6 -13 25 -36 43 -51 17 -16 25 -26 18 -22 -8 4 -20 -1 -28 -11 -11 -14 -17 -15 -20 -6 -3 6 -15 12 -26 12 -26 0 -47 27 -48 62 0 41 42 52 61 16z m-1241 -1143 c0 -8 -4 -15 -10 -15 -5 0 -7 7 -4 15 4 8 8 15 10 15 2 0 4 -7 4 -15z m3850 -755 c0 -5 -2 -10 -4 -10 -3 0 -8 5 -11 10 -3 6 -1 10 4 10 6 0 11 -4 11 -10z m-3246 -278 c3 -5 -1 -9 -9 -9 -8 0 -12 4 -9 9 3 4 7 8 9 8 2 0 6 -4 9 -8z m4691 -481 c3 -5 1 -12 -5 -16 -5 -3 -10 1 -10 9 0 18 6 21 15 7z m210 -91 c10 -11 13 -20 7 -20 -6 0 -16 9 -22 20 -6 11 -9 20 -7 20 2 0 12 -9 22 -20z"/>
		<path d="M15534 10095 c-10 -8 -36 -15 -56 -15 -21 0 -38 -4 -38 -10 0 -5 -9 -10 -21 -10 -30 0 -20 -32 15 -48 25 -13 31 -12 57 7 15 12 33 21 38 21 6 0 8 6 5 14 -3 9 3 20 15 28 21 13 28 28 13 28 -5 0 -17 -7 -28 -15z"/>
	</g>
	<g id="africa" fill="#2D5F2C">
		<path d="M13728 10231 c-34 -19 -84 -21 -109 -5 -6 4 -15 1 -19 -5 -5 -9 -14 -9 -35 1 -22 10 -29 10 -33 0 -2 -6 -11 -12 -21 -12 -9 0 -23 -6 -29 -12 -10 -10 -17 -10 -32 0 -27 16 -55 15 -190 -7 -113 -19 -180 -42 -180 -63 0 -5 -7 -8 -15 -5 -8 4 -17 2 -20 -3 -4 -6 -13 -10 -21 -10 -8 0 -26 -11 -40 -25 -14 -14 -30 -25 -37 -26 -25 -2 -62 3 -70 10 -4 4 -33 4 -65 0 -63 -9 -100 6 -109 42 -6 20 -20 24 -39 11 -6 -4 -22 -32 -35 -62 -34 -81 -57 -108 -119 -137 -60 -29 -120 -82 -120 -107 0 -9 -10 -31 -22 -47 -18 -24 -23 -44 -23 -94 0 -38 -5 -69 -12 -76 -7 -7 -13 -18 -13 -24 0 -5 -16 -24 -36 -40 -20 -17 -45 -38 -56 -48 -23 -21 -80 -47 -103 -47 -22 0 -36 -16 -62 -72 -13 -27 -27 -48 -31 -48 -27 0 -82 -82 -82 -123 0 -24 -26 -64 -66 -102 -12 -11 -32 -47 -45 -80 -12 -33 -30 -66 -40 -72 -9 -7 -20 -29 -24 -50 -3 -21 -9 -49 -12 -62 -4 -17 -2 -22 8 -19 7 2 24 -7 36 -20 23 -25 30 -52 14 -52 -17 0 -22 -50 -6 -73 21 -30 19 -116 -5 -177 -11 -28 -20 -62 -20 -77 0 -30 -49 -113 -67 -113 -7 0 -13 -4 -13 -10 0 -5 7 -10 15 -10 9 0 20 -12 26 -27 6 -16 15 -36 20 -45 5 -10 5 -19 -1 -23 -6 -3 -10 -27 -10 -53 1 -39 6 -52 30 -76 33 -32 39 -49 14 -39 -13 5 -15 2 -9 -18 11 -35 18 -39 40 -22 14 11 16 17 8 20 -15 5 -18 33 -4 33 5 0 14 -13 20 -30 5 -16 15 -30 20 -30 6 0 11 -7 11 -15 0 -8 7 -15 15 -15 8 0 15 -3 15 -8 0 -4 23 -31 50 -61 32 -35 50 -63 51 -80 1 -42 7 -64 20 -71 6 -4 8 -13 5 -19 -4 -6 -3 -11 3 -11 6 0 8 -6 6 -12 -3 -8 12 -20 37 -31 42 -17 77 -45 197 -153 121 -109 151 -118 242 -74 96 46 247 50 331 9 11 -5 28 -3 45 6 92 46 161 75 181 75 12 0 25 7 28 14 7 19 88 36 181 38 59 2 75 -1 93 -17 25 -23 60 -87 60 -109 0 -8 10 -25 23 -36 17 -17 30 -20 57 -15 19 3 53 8 75 10 22 3 54 6 72 8 26 4 33 0 37 -19 3 -12 15 -26 26 -29 11 -3 20 -12 20 -19 0 -8 6 -19 14 -25 19 -16 10 -113 -15 -163 -13 -25 -15 -38 -7 -40 7 -3 9 -11 3 -24 -4 -10 -10 -39 -12 -64 -5 -43 -18 -64 -35 -54 -13 8 -9 -20 6 -52 8 -16 22 -47 32 -69 10 -22 35 -56 54 -75 71 -69 160 -201 160 -238 0 -12 5 -24 10 -27 6 -4 8 -10 5 -15 -3 -5 5 -33 19 -62 13 -29 32 -77 43 -106 18 -52 18 -54 -1 -67 -18 -14 -18 -17 14 -97 22 -56 32 -98 31 -128 -2 -52 -18 -100 -35 -100 -19 -1 -65 -84 -72 -131 -8 -60 -34 -149 -42 -149 -13 0 -7 -184 7 -217 7 -18 17 -33 20 -33 10 0 53 -89 96 -195 9 -22 28 -60 43 -85 21 -36 27 -59 28 -115 1 -38 6 -92 12 -120 6 -27 18 -90 27 -139 19 -103 33 -135 85 -192 24 -26 45 -65 60 -110 24 -74 57 -146 71 -155 5 -3 12 -26 15 -52 6 -39 4 -47 -9 -47 -8 0 -17 -6 -20 -12 -4 -14 12 -48 27 -59 5 -4 7 -18 4 -32 -7 -34 8 -58 22 -37 6 10 10 11 10 3 0 -7 6 -13 13 -13 8 0 22 -9 32 -20 22 -25 42 -25 67 -3 12 11 34 17 60 16 23 -1 51 5 65 14 29 19 101 24 156 11 26 -6 43 -6 52 2 8 6 24 10 37 8 13 -2 22 2 21 8 -1 7 17 14 41 16 53 6 154 72 211 136 11 13 37 40 59 60 37 36 106 134 106 151 0 13 67 81 80 81 11 0 29 37 54 115 18 56 22 130 6 120 -18 -11 -10 13 13 40 12 14 54 38 92 54 51 20 76 37 93 61 14 21 19 37 13 43 -6 6 -6 19 1 36 13 32 11 112 -2 125 -6 6 -10 15 -10 20 0 6 5 4 10 -4 8 -12 10 -11 10 8 0 12 -5 21 -12 20 -7 -2 -12 11 -13 32 -1 19 -7 36 -14 38 -6 2 -11 14 -11 26 0 26 90 126 114 126 9 0 16 4 16 8 0 4 8 19 18 32 36 49 73 78 129 101 32 12 60 26 63 29 3 4 12 11 21 16 26 14 93 105 107 146 10 29 10 47 2 80 -7 24 -11 99 -10 173 3 167 4 160 -23 172 -19 9 -28 26 -40 80 -22 87 -21 100 3 106 11 3 20 11 20 17 0 7 -7 10 -15 6 -20 -7 -32 21 -18 43 8 13 4 25 -18 52 -16 18 -29 41 -29 49 0 21 33 114 43 121 10 7 56 113 64 147 3 12 15 27 26 33 31 17 83 73 103 110 43 85 178 230 260 282 54 34 213 208 214 234 0 4 16 33 35 63 19 30 35 62 35 72 0 20 61 151 73 156 4 2 7 8 7 14 0 5 11 32 25 60 14 27 25 65 25 85 0 26 5 36 20 40 21 6 27 19 10 25 -9 3 -14 56 -8 92 5 28 -37 40 -59 17 -22 -22 -108 -52 -129 -44 -8 3 -26 0 -39 -7 -13 -7 -34 -10 -46 -7 -13 4 -32 -2 -49 -15 -20 -14 -38 -19 -61 -16 -22 3 -44 -1 -64 -13 -52 -32 -90 -19 -130 44 -10 15 -28 30 -42 33 l-24 6 23 12 c38 19 34 48 -14 98 -24 25 -50 55 -58 67 -8 11 -19 21 -25 21 -5 0 -18 14 -27 30 -10 17 -25 33 -35 37 -10 4 -24 13 -31 20 -7 6 -19 10 -26 7 -9 -3 -15 4 -18 20 -4 18 -1 26 9 26 12 0 12 2 -1 15 -19 20 -23 19 -30 -7 -6 -23 -7 -23 -21 -3 -9 11 -20 38 -25 60 -28 115 -42 144 -91 182 -56 44 -70 76 -73 173 -2 38 -9 76 -15 84 -7 9 -14 27 -15 41 0 14 -3 25 -6 25 -3 0 -24 17 -48 38 -47 42 -75 112 -44 112 11 0 8 7 -11 24 -14 13 -38 50 -55 82 -16 33 -39 76 -51 97 -11 21 -21 43 -21 50 0 7 -8 24 -17 37 -10 14 -19 33 -20 43 -2 11 -19 37 -38 60 -19 22 -35 51 -35 63 0 13 -4 25 -9 29 -6 3 -13 37 -17 75 -3 38 -12 77 -19 87 -26 35 -145 23 -189 -19 -12 -11 -29 -17 -41 -14 -11 2 -40 10 -65 15 -25 6 -54 15 -65 20 -36 16 -103 29 -128 24 -19 -4 -27 0 -32 16 -5 16 -15 21 -38 21 -54 0 -104 19 -110 40 -3 12 -14 20 -25 20 -12 0 -24 5 -27 10 -15 24 -110 2 -155 -36 -31 -27 -40 -72 -21 -103 16 -26 -24 -80 -60 -81 -8 0 -33 13 -55 28 -41 30 -104 52 -145 52 -35 0 -66 25 -74 61 -5 20 -16 34 -33 41 -15 6 -40 17 -56 26 -18 9 -52 15 -82 14 -33 -1 -66 6 -93 18 -40 20 -67 51 -54 64 3 3 -1 6 -10 6 -9 0 -17 -4 -17 -10 0 -17 -29 -11 -40 9 -8 16 -4 24 20 45 17 14 37 23 45 20 8 -4 15 -1 15 6 0 6 -5 8 -10 5 -7 -4 -8 7 -4 33 5 34 3 42 -15 51 -25 14 -27 36 -5 58 8 9 13 22 10 30 -3 8 -1 11 4 8 6 -3 10 -2 10 3 0 19 -14 21 -32 5 -18 -16 -19 -16 -24 4 -5 17 -29 32 -54 33 -3 0 -22 -9 -42 -19z m1908 -3229 c8 -11 9 -21 2 -29 -5 -7 -7 -16 -4 -21 6 -11 -15 -62 -26 -62 -5 0 -8 -5 -8 -11 0 -7 -8 -18 -17 -25 -17 -13 -17 -15 0 -28 25 -20 10 -26 -43 -16 -27 5 -50 4 -57 -1 -19 -16 -24 6 -18 78 10 107 11 110 52 123 21 7 42 16 47 20 11 11 56 -6 72 -28z m-346 -384 c0 -15 5 -30 11 -33 6 -4 8 -14 5 -22 -3 -8 -1 -24 5 -36 9 -16 9 -22 0 -25 -20 -7 -12 -42 13 -51 24 -10 36 -30 36 -62 0 -11 11 -42 25 -69 31 -61 31 -62 0 -48 -16 7 -24 17 -20 26 3 7 -2 23 -10 35 -8 12 -15 28 -15 35 0 8 -13 30 -30 49 -16 18 -31 41 -32 51 0 9 -2 31 -4 47 -2 17 -5 66 -7 110 -3 72 -2 77 9 50 7 -16 13 -42 14 -57z m360 -458 c6 -11 12 -41 14 -65 1 -25 8 -51 14 -57 15 -15 16 -55 2 -63 -14 -9 -6 -148 9 -153 6 -2 11 -8 11 -13 0 -6 -4 -7 -10 -4 -5 3 -10 1 -10 -4 0 -6 -5 -11 -11 -11 -6 0 -8 9 -4 20 4 12 2 26 -3 33 -10 13 -25 90 -23 122 7 119 5 153 -6 175 -7 14 -13 28 -13 33 0 15 20 6 30 -13z"/>
		<path d="M16760 5958 c-8 -13 -15 -38 -17 -57 -3 -42 -9 -48 -33 -33 -16 10 -20 10 -20 -2 0 -8 6 -17 13 -20 6 -3 2 -3 -10 0 -23 5 -27 -1 -24 -38 1 -9 -3 -19 -9 -23 -5 -3 -10 -15 -10 -25 0 -13 -5 -17 -15 -14 -9 4 -15 0 -15 -9 0 -20 -71 -70 -125 -88 -22 -7 -44 -17 -49 -21 -6 -4 -20 -8 -33 -8 -18 0 -23 -5 -23 -27 0 -16 -9 -41 -19 -57 -20 -30 -20 -54 0 -169 12 -67 12 -69 -17 -125 -16 -31 -33 -60 -37 -63 -35 -25 -48 -116 -23 -163 8 -16 12 -44 9 -70 -3 -26 -1 -46 6 -50 6 -4 11 -15 11 -25 0 -22 30 -51 53 -51 9 0 17 -4 17 -10 0 -15 52 -11 74 5 11 8 32 15 47 15 30 0 69 40 69 69 0 9 6 25 14 36 7 11 19 45 26 75 8 30 22 71 31 91 10 20 24 58 30 85 7 27 29 92 50 146 21 53 41 114 44 135 12 72 15 83 28 80 12 -2 13 7 1 83 l-7 45 20 -24 20 -25 17 32 c12 24 14 37 6 51 -5 11 -10 40 -10 64 0 24 -5 59 -11 78 -14 44 -53 128 -59 129 -3 0 -12 -10 -20 -22z"/>
	</g>
</g>
</svg>